<svg xmlns="http://www.w3.org/2000/svg" width="256" height="256" viewBox="0 0 100 100"><path d="M3.33 34.01L3.33 34.01Q2.81 34.18 2.56 34.05Q2.30 33.92 2.17 33.62Q2.04 33.32 2.04 32.96Q2.04 32.59 2.08 32.25L2.08 32.25Q2.13 31.95 2.23 31.56Q2.34 31.17 2.51 30.83Q2.68 30.48 2.92 30.25Q3.16 30.01 3.54 29.93L3.54 29.93Q5.52 29.58 7.39 29.41Q9.26 29.24 10.76 29.15L10.76 29.15Q12.48 29.02 14.07 29.02L14.07 29.02Q14.41 29.02 14.76 29.05Q15.10 29.07 15.45 29.07L15.45 29.07Q15.83 28.98 16.07 29.00Q16.31 29.02 16.48 29.07L16.48 29.07Q17.72 29.11 19.06 29.20L19.06 29.20Q20.17 29.28 21.57 29.39Q22.97 29.50 24.34 29.67L24.34 29.67Q24.47 30.01 24.38 30.53L24.38 30.53Q24.34 30.79 24.30 31.04L24.30 31.04Q24.25 31.30 24.08 31.52L24.08 31.52Q23.95 31.73 23.76 31.92Q23.57 32.12 23.31 32.25L23.31 32.25Q21.85 32.20 20.49 32.18Q19.14 32.16 18.11 32.16L18.11 32.16L15.79 32.16Q15.23 34.14 14.41 37.04Q13.60 39.94 12.76 43.14Q11.92 46.34 11.17 49.50Q10.42 52.66 9.99 55.19L9.99 55.19Q9.56 57.64 9.13 60.00L9.13 60.00Q8.96 60.99 8.76 62.07Q8.57 63.14 8.42 64.17Q8.27 65.20 8.14 66.15Q8.01 67.09 7.93 67.87L7.93 67.87Q7.24 68.21 6.64 68.40Q6.04 68.60 5.56 68.68L5.56 68.68Q5.00 68.81 4.53 68.81L4.53 68.81Q3.50 68.81 3.26 68.58Q3.03 68.34 3.20 67.65L3.20 67.65Q3.33 67.05 3.97 64.39L3.97 64.39Q4.23 63.27 4.64 61.57Q5.05 59.88 5.61 57.45Q6.16 55.02 6.94 51.78Q7.71 48.53 8.70 44.32L8.70 44.32L11.58 32.38Q10.29 32.55 9.04 32.76Q7.80 32.98 6.70 33.21Q5.61 33.45 4.73 33.66Q3.84 33.88 3.33 34.01ZM27.09 51.63L27.09 51.63Q27.61 51.54 28.12 51.43Q28.64 51.32 29.24 51.15L29.24 51.15Q28.51 50.47 27.31 50.29L27.31 50.29Q27.18 50.98 27.09 51.63ZM44.66 38.35L44.66 38.35Q44.49 40.20 43.70 42.22Q42.90 44.23 41.49 46.13Q40.07 48.02 38.05 49.65Q36.03 51.28 33.45 52.31L33.45 52.31Q33.84 53.04 34.18 53.86Q34.52 54.68 34.78 55.71L34.78 55.71Q35.17 57.08 35.45 58.54Q35.73 60.00 35.92 61.38Q36.11 62.75 36.26 63.94Q36.41 65.12 36.50 65.89L36.50 65.89Q36.67 67.18 37.34 67.72Q38.00 68.25 38.84 68.32Q39.68 68.38 40.52 68.13Q41.36 67.87 41.83 67.57L41.83 67.57Q41.79 67.61 41.36 68.32Q40.93 69.03 40.20 69.82Q39.47 70.62 38.46 71.20Q37.45 71.78 36.20 71.56L36.20 71.56Q35.34 71.43 34.67 70.98Q34.01 70.53 33.51 69.65Q33.02 68.77 32.72 67.39Q32.42 66.02 32.33 64.04L32.33 64.04Q32.25 61.38 32.14 58.95Q32.03 56.52 31.22 54.46L31.22 54.46Q31.09 54.12 30.96 53.80Q30.83 53.47 30.66 53.22L30.66 53.22Q28.90 53.64 26.70 53.77L26.70 53.77Q26.40 55.41 26.06 57.13Q25.72 58.84 25.35 60.48Q24.99 62.11 24.58 63.55Q24.17 64.99 23.78 66.02L23.78 66.02Q23.35 67.09 22.69 67.76Q22.02 68.43 20.56 68.43L20.56 68.43Q19.70 68.43 19.06 68.04Q18.41 67.65 17.81 66.97L17.81 66.97Q17.98 66.84 18.35 66.56Q18.71 66.28 19.21 65.44Q19.70 64.60 20.28 63.05Q20.86 61.51 21.46 58.89L21.46 58.89Q21.68 57.81 22.04 56.37Q22.41 54.93 22.84 53.22L22.84 53.22Q21.12 52.27 21.25 50.68L21.25 50.68Q21.33 49.69 22.15 49.00Q22.97 48.32 24.13 48.06L24.13 48.06Q24.68 45.82 25.26 43.55Q25.84 41.27 26.36 39.27Q26.88 37.27 27.31 35.66Q27.74 34.05 27.99 33.11L27.99 33.11Q27.22 33.62 26.45 34.27L26.45 34.27Q25.76 34.82 24.96 35.53Q24.17 36.24 23.48 37.02L23.48 37.02Q23.14 36.76 22.92 36.46Q22.71 36.16 22.58 35.94L22.58 35.94Q22.41 35.68 22.32 35.38L22.32 35.38Q22.02 34.78 22.02 34.07Q22.02 33.36 23.05 32.63L23.05 32.63Q23.61 32.25 24.75 31.52Q25.89 30.79 27.56 30.10Q29.24 29.41 31.45 28.89Q33.66 28.38 36.37 28.38L36.37 28.38Q39.08 28.38 40.75 29.45Q42.43 30.53 43.33 32.07Q44.24 33.62 44.51 35.34Q44.79 37.06 44.66 38.35ZM31.69 50.16L31.69 50.16Q33.19 49.43 34.67 48.36Q36.16 47.29 37.36 45.78Q38.56 44.28 39.38 42.37Q40.20 40.45 40.41 38.05L40.41 38.05Q40.58 35.90 40.13 34.46Q39.68 33.02 38.80 32.16Q37.92 31.30 36.80 30.94Q35.68 30.57 34.57 30.57L34.57 30.57Q33.54 30.57 32.48 30.87Q31.43 31.17 30.44 31.64L30.44 31.64Q30.57 31.69 30.74 31.86L30.74 31.86Q30.83 31.99 30.94 32.18Q31.04 32.38 31.09 32.59L31.09 32.59Q30.10 36.76 29.50 39.55Q28.90 42.34 28.51 44.11L28.51 44.11Q28.04 46.17 27.82 47.41L27.82 47.41Q27.78 47.59 27.76 47.76Q27.74 47.93 27.69 48.14L27.69 48.14Q28.64 48.36 29.67 48.81Q30.70 49.26 31.69 50.16ZM41.83 67.05L41.83 67.05Q42.00 66.92 42.37 66.62Q42.73 66.32 43.23 65.50Q43.72 64.69 44.32 63.14Q44.92 61.59 45.57 58.93L45.57 58.93Q45.91 57.51 46.47 55.32Q47.03 53.13 47.69 50.64Q48.36 48.14 49.05 45.50Q49.74 42.86 50.38 40.47Q51.02 38.09 51.54 36.16Q52.06 34.22 52.36 33.15L52.36 33.15Q51.54 33.66 50.77 34.31L50.77 34.31Q50.08 34.87 49.31 35.58Q48.53 36.29 47.80 37.06L47.80 37.06Q47.24 36.59 46.94 36.03L46.94 36.03Q46.77 35.77 46.64 35.47L46.64 35.47Q46.38 34.82 46.38 34.14Q46.38 33.45 47.46 32.72L47.46 32.72Q48.02 32.33 49.15 31.60Q50.29 30.87 51.97 30.16Q53.65 29.45 55.88 28.94Q58.11 28.42 60.82 28.42L60.82 28.42Q63.53 28.42 65.18 29.50Q66.84 30.57 67.72 32.12Q68.60 33.66 68.86 35.38Q69.11 37.10 68.99 38.39L68.99 38.39Q68.73 40.80 67.44 43.42Q66.15 46.04 63.87 48.25Q61.59 50.47 58.33 52.01Q55.06 53.56 50.85 53.77L50.85 53.77Q50.51 55.41 50.16 57.13Q49.82 58.84 49.43 60.50Q49.05 62.15 48.64 63.59Q48.23 65.03 47.80 66.06L47.80 66.06Q47.37 67.18 46.68 67.85Q46.00 68.51 44.49 68.51L44.49 68.51Q43.72 68.51 43.05 68.13Q42.39 67.74 41.83 67.05ZM52.01 47.46L52.01 47.46Q51.88 48.14 51.69 49.24Q51.50 50.34 51.24 51.71L51.24 51.71Q52.40 51.54 53.82 51.09Q55.24 50.64 56.65 49.86Q58.07 49.09 59.42 47.99Q60.78 46.90 61.90 45.46Q63.01 44.02 63.76 42.19Q64.52 40.37 64.73 38.13L64.73 38.13Q64.95 35.98 64.49 34.55Q64.04 33.11 63.18 32.22Q62.32 31.34 61.21 30.98Q60.09 30.61 58.97 30.61L58.97 30.61Q57.90 30.61 56.87 30.91Q55.84 31.22 54.81 31.69L54.81 31.69Q54.93 31.73 55.11 31.90L55.11 31.90Q55.36 32.16 55.49 32.63L55.49 32.63Q54.46 36.80 53.80 39.59Q53.13 42.39 52.74 44.15L52.74 44.15Q52.27 46.21 52.01 47.46ZM67.14 68.94L67.14 68.94Q65.46 68.98 64.37 68.34Q63.27 67.70 62.65 66.47Q62.02 65.25 61.85 63.51Q61.68 61.77 61.85 59.70L61.85 59.70Q62.07 58.11 62.63 56.39L62.63 56.39Q63.10 54.93 64.07 53.17Q65.03 51.41 66.66 49.73L66.66 49.73Q67.01 49.82 67.22 49.93Q67.44 50.04 67.57 50.16L67.57 50.16Q67.70 50.34 67.74 50.47L67.74 50.47Q67.82 50.94 67.48 51.54Q67.14 52.14 66.79 52.83L66.79 52.83Q65.85 54.80 65.38 56.57Q64.90 58.33 64.77 59.83L64.77 59.83Q64.69 61.12 64.80 62.17Q64.90 63.23 65.12 63.98Q65.33 64.73 65.59 65.14Q65.85 65.55 66.06 65.55L66.06 65.55Q66.28 65.55 66.51 65.25Q66.75 64.95 66.97 64.52L66.97 64.52Q67.22 64.09 67.57 63.21Q67.91 62.32 68.30 61.16Q68.68 60.00 69.05 58.65Q69.41 57.30 69.72 55.92L69.72 55.92Q70.32 53.17 71.00 49.71Q71.69 46.25 73.02 42.47L73.02 42.47Q73.45 40.88 74.10 38.99L74.10 38.99Q74.61 37.36 75.41 35.19Q76.20 33.02 77.24 30.48L77.24 30.48Q77.24 30.27 77.60 30.08Q77.97 29.88 78.44 29.67L78.44 29.67Q78.95 29.45 79.60 29.24L79.60 29.24Q80.46 28.94 80.95 28.89Q81.45 28.85 81.70 29.02Q81.96 29.20 82.05 29.47Q82.13 29.75 82.13 30.10L82.13 30.10Q82.22 31.52 82.24 32.76Q82.26 34.01 82.31 34.95L82.31 34.95Q82.35 36.07 82.35 36.97L82.35 36.97Q82.39 38.18 82.22 40.17Q82.05 42.17 81.85 44.36Q81.66 46.55 81.51 48.64Q81.36 50.72 81.45 52.10L81.45 52.10Q81.45 52.83 81.51 53.45Q81.57 54.07 81.66 54.68L81.66 54.68Q82.22 53.13 82.91 51.43Q83.59 49.73 84.28 48.17Q84.97 46.60 85.57 45.24Q86.17 43.89 86.52 42.99L86.52 42.99Q87.03 41.79 87.89 39.94Q88.75 38.09 89.63 36.24Q90.51 34.39 91.26 32.85Q92.02 31.30 92.36 30.70L92.36 30.70Q92.62 30.27 93.24 29.93Q93.86 29.58 94.57 29.32Q95.28 29.07 95.90 28.96Q96.53 28.85 96.74 28.94L96.74 28.94Q97.30 29.07 97.54 29.28Q97.77 29.50 97.82 29.58L97.82 29.58Q97.90 29.75 97.95 30.16Q97.99 30.57 97.90 31.43L97.90 31.43Q97.82 32.46 97.41 34.57Q97.00 36.67 96.42 39.36Q95.84 42.04 95.17 45.09Q94.51 48.14 93.91 51.09Q93.31 54.03 92.85 56.61Q92.40 59.19 92.27 60.95L92.27 60.95Q92.19 62.93 92.53 64.43L92.53 64.43Q92.66 65.07 92.92 65.68Q93.18 66.28 93.61 66.73Q94.04 67.18 94.64 67.39Q95.24 67.61 96.06 67.52L96.06 67.52Q94.98 68.25 93.95 68.60Q92.92 68.94 91.93 68.94L91.93 68.94Q90.86 68.98 90.04 68.62Q89.22 68.25 88.66 67.59Q88.11 66.92 87.85 66.00Q87.59 65.07 87.68 63.96L87.68 63.96Q87.76 62.93 88.24 60.56Q88.71 58.20 89.37 55.21Q90.04 52.23 90.83 48.98Q91.63 45.74 92.34 42.88Q93.05 40.02 93.56 37.96Q94.08 35.90 94.21 35.25L94.21 35.25Q94.29 34.74 94.36 34.29Q94.42 33.84 94.51 33.49L94.51 33.49Q94.08 34.35 93.46 35.55Q92.83 36.76 92.15 38.13Q91.46 39.51 90.75 40.99Q90.04 42.47 89.40 43.85L89.40 43.85Q88.32 46.08 87.29 48.42Q86.26 50.77 85.44 52.87Q84.63 54.98 84.09 56.65Q83.55 58.33 83.47 59.23L83.47 59.23L83.47 59.83Q83.47 60.09 83.49 60.43Q83.51 60.78 83.59 61.08L83.59 61.08L81.88 62.41Q81.49 62.54 81.21 62.63Q80.93 62.71 80.67 62.71L80.67 62.71Q79.68 62.71 79.17 61.68L79.17 61.68Q78.65 60.73 78.22 57.98Q77.79 55.23 77.97 51.24L77.97 51.24Q78.05 49.26 78.24 47.24Q78.44 45.22 78.63 43.38Q78.82 41.53 79.00 39.92Q79.17 38.30 79.17 37.14L79.17 37.14Q79.21 36.29 79.13 35.58Q79.04 34.87 78.95 34.27L78.95 34.27Q78.57 35.25 78.09 36.95Q77.62 38.65 77.11 40.71Q76.59 42.77 76.05 45.05Q75.52 47.33 75.02 49.43Q74.53 51.54 74.10 53.32Q73.67 55.11 73.41 56.18L73.41 56.18Q72.98 57.90 72.55 60.09Q72.12 62.28 71.48 64.24Q70.83 66.19 69.80 67.55Q68.77 68.90 67.14 68.94Z" fill="#000000"></path></svg>